<svg width="580" height="326" viewBox="0 0 580 326" fill="none" xmlns="http://www.w3.org/2000/svg">
<g id="Presentation opener / Approved v1.2 preview">
<g clip-path="url(#clip0_28_4294)">
<rect width="580" height="326" rx="8" fill="#12161D"/>
<g id="Canonical Primary Lockup / Dark">
<g id="Group">
<path id="Vector" d="M58.0351 34.6808L77.3804 49.3085V56.9149L58.0351 44.0425L38.6898 56.9149V49.3085L58.0351 34.6808Z" fill="#3EC7B4"/>
<path id="Vector_2" d="M54.5178 51.6489L38.6898 62.1808V70.3723L54.5178 59.8404V51.6489Z" fill="#3EC7B4"/>
<path id="Vector_3" d="M61.5525 51.6489L77.3805 62.1808V70.3723L61.5525 60.4255V51.6489Z" fill="#3EC7B4"/>
<path id="Vector_4" d="M53.3453 68.617L58.0351 72.1276L62.7249 68.617L68.0009 73.2979L58.0351 80.3191L48.0693 73.2979L53.3453 68.617Z" fill="#3EC7B4"/>
</g>
<g id="Group_2">
<g id="Group_3">
<g id="Group_4">
<g id="Group_5">
<path id="Vector_5" d="M94.1144 65.3334L95.5919 37.2462H101.818L100.34 65.3334H94.1144ZM96.973 54.1873L97.2413 49.0876H114.17L113.901 54.1873H96.973ZM97.5959 42.3459L97.8642 37.2462H117.292L117.024 42.3459H97.5959ZM132.137 65.6231C129.713 65.6231 127.618 65.1949 125.853 64.3385C124.088 63.4821 122.746 62.2748 121.829 60.7165C120.911 59.1583 120.507 57.3425 120.616 55.2691L121.034 47.3104C121.144 45.2242 121.74 43.4052 122.821 41.8533C123.902 40.3015 125.37 39.0974 127.226 38.241C129.081 37.3846 131.221 36.9564 133.645 36.9564C136.069 36.9564 138.164 37.3846 139.929 38.241C141.694 39.0974 143.036 40.3015 143.954 41.8533C144.872 43.4052 145.276 45.2242 145.166 47.3104L144.747 55.2691C144.638 57.3425 144.043 59.1583 142.961 60.7165C141.88 62.2748 140.411 63.4821 138.556 64.3385C136.701 65.1949 134.561 65.6231 132.137 65.6231ZM132.406 60.3302C134.109 60.3302 135.495 59.8797 136.565 58.9786C137.635 58.0775 138.209 56.8861 138.287 55.4043L138.72 47.1752C138.798 45.6834 138.35 44.4895 137.375 43.5934C136.4 42.6974 135.064 42.2493 133.366 42.2493C131.67 42.2493 130.287 42.6974 129.217 43.5934C128.147 44.4895 127.573 45.6834 127.495 47.1752L127.062 55.4043C126.984 56.8861 127.433 58.0775 128.408 58.9786C129.383 59.8797 130.716 60.3302 132.406 60.3302ZM162.812 65.6231C160.388 65.6231 158.294 65.1949 156.528 64.3385C154.763 63.4821 153.422 62.2748 152.504 60.7165C151.587 59.1583 151.182 57.3425 151.291 55.2691L151.71 47.3104C151.82 45.2242 152.415 43.4052 153.497 41.8533C154.578 40.3015 156.046 39.0974 157.901 38.241C159.757 37.3846 161.896 36.9564 164.32 36.9564C166.745 36.9564 168.839 37.3846 170.605 38.241C172.37 39.0974 173.711 40.3015 174.629 41.8533C175.547 43.4052 175.951 45.2242 175.842 47.3104L175.423 55.2691C175.314 57.3425 174.718 59.1583 173.637 60.7165C172.555 62.2748 171.087 63.4821 169.232 64.3385C167.376 65.1949 165.237 65.6231 162.812 65.6231ZM163.082 60.3302C164.784 60.3302 166.171 59.8797 167.241 58.9786C168.311 58.0775 168.885 56.8861 168.963 55.4043L169.395 47.1752C169.474 45.6834 169.026 44.4895 168.051 43.5934C167.076 42.6974 165.739 42.2493 164.042 42.2493C162.345 42.2493 160.962 42.6974 159.893 43.5934C158.823 44.4895 158.249 45.6834 158.17 47.1752L157.738 55.4043C157.66 56.8861 158.108 58.0775 159.083 58.9786C160.058 59.8797 161.391 60.3302 163.082 60.3302ZM186.573 65.3334L187.93 39.5449H194.156L192.799 65.3334H186.573ZM178.784 42.3459L179.052 37.2462H203.275L203.006 42.3459H178.784ZM223.247 65.3334L224.725 37.2462H230.951L229.473 65.3334H223.247ZM205.16 65.3334L206.638 37.2462H212.864L211.386 65.3334H205.16ZM208.644 53.9555L208.913 48.8558H228.159L227.89 53.9555H208.644ZM248.75 65.6231C246.325 65.6231 244.231 65.1949 242.465 64.3385C240.7 63.4821 239.359 62.2748 238.441 60.7165C237.524 59.1583 237.119 57.3425 237.228 55.2691L237.647 47.3104C237.757 45.2242 238.352 43.4052 239.434 41.8533C240.515 40.3015 241.983 39.0974 243.838 38.241C245.694 37.3846 247.833 36.9564 250.258 36.9564C252.682 36.9564 254.776 37.3846 256.542 38.241C258.307 39.0974 259.648 40.3015 260.566 41.8533C261.484 43.4052 261.888 45.2242 261.779 47.3104L261.36 55.2691C261.251 57.3425 260.656 59.1583 259.574 60.7165C258.492 62.2748 257.024 63.4821 255.169 64.3385C253.313 65.1949 251.174 65.6231 248.75 65.6231ZM249.019 60.3302C250.721 60.3302 252.108 59.8797 253.178 58.9786C254.248 58.0775 254.822 56.8861 254.9 55.4043L255.333 47.1752C255.411 45.6834 254.963 44.4895 253.988 43.5934C253.013 42.6974 251.677 42.2493 249.979 42.2493C248.283 42.2493 246.899 42.6974 245.83 43.5934C244.76 44.4895 244.186 45.6834 244.108 47.1752L243.675 55.4043C243.597 56.8861 244.045 58.0775 245.02 58.9786C245.995 59.8797 247.328 60.3302 249.019 60.3302ZM268.056 65.3334L269.534 37.2462H275.76L274.282 65.3334H268.056ZM270.828 65.3334L271.097 60.2336H290.456L290.188 65.3334H270.828ZM298.505 65.3334L298.773 60.2336H306.703C308.748 60.2336 310.353 59.8119 311.519 58.9683C312.684 58.1248 313.307 56.9433 313.387 55.4236L313.822 47.1559C313.902 45.6234 313.404 44.4386 312.327 43.6015C311.25 42.7645 309.689 42.3459 307.644 42.3459H299.714L299.982 37.2462H307.776C311.927 37.2462 315.088 38.1251 317.26 39.883C319.433 41.6409 320.435 44.1167 320.267 47.3104L319.848 55.2691C319.743 57.2652 319.166 59.0199 318.117 60.533C317.068 62.0462 315.555 63.2246 313.58 64.0681C311.604 64.9116 309.169 65.3334 306.276 65.3334H298.505ZM295.369 65.3334L296.847 37.2462H303.073L301.595 65.3334H295.369Z" fill="#E9E7E1"/>
</g>
</g>
</g>
</g>
<g id="Group_6">
<g id="Group_7">
<g id="Group_8">
<g id="Group_9">
<path id="Vector_6" d="M96.864 79.4799H95.7963V82.6666H95.1795V79.4799H94.1144V78.9574H96.864V79.4799ZM103.165 82.6666H101.079V78.9574H103.082V79.4799H101.696V80.5301H102.973V81.05H101.696V82.1467H103.165V82.6666ZM110.368 82.6666H109.648L109.054 81.6734C109.001 81.582 108.948 81.5039 108.897 81.4393C108.846 81.3746 108.795 81.3216 108.742 81.2802C108.689 81.2388 108.632 81.2086 108.57 81.1897C108.507 81.1707 108.437 81.1612 108.36 81.1612H108.111V82.6666H107.497V78.9574H108.72C108.894 78.9574 109.055 78.9781 109.202 79.0195C109.349 79.0609 109.477 79.1234 109.585 79.2071C109.694 79.2907 109.779 79.395 109.841 79.52C109.902 79.645 109.933 79.7912 109.933 79.9585C109.933 80.0895 109.913 80.2098 109.874 80.3193C109.836 80.4288 109.78 80.5262 109.709 80.6116C109.637 80.6969 109.55 80.7698 109.449 80.8301C109.348 80.8905 109.235 80.9371 109.109 80.9698V80.9802C109.176 81.0181 109.235 81.0599 109.285 81.1056C109.335 81.1513 109.382 81.1983 109.427 81.2466C109.472 81.2949 109.517 81.3496 109.561 81.4108C109.605 81.472 109.654 81.5432 109.707 81.6242L110.368 82.6666ZM108.111 79.4567V80.662H108.624C108.719 80.662 108.807 80.6474 108.887 80.618C108.967 80.5887 109.037 80.5465 109.096 80.4913C109.154 80.4361 109.2 80.3689 109.233 80.2895C109.266 80.2102 109.282 80.1214 109.282 80.0231C109.282 79.8455 109.226 79.7067 109.114 79.6067C109.002 79.5067 108.84 79.4567 108.629 79.4567H108.111ZM117.343 82.6666H116.623L116.029 81.6734C115.976 81.582 115.923 81.5039 115.872 81.4393C115.821 81.3746 115.77 81.3216 115.717 81.2802C115.664 81.2388 115.607 81.2086 115.545 81.1897C115.482 81.1707 115.412 81.1612 115.335 81.1612H115.086V82.6666H114.472V78.9574H115.695C115.869 78.9574 116.03 78.9781 116.177 79.0195C116.324 79.0609 116.452 79.1234 116.56 79.2071C116.669 79.2907 116.754 79.395 116.816 79.52C116.877 79.645 116.908 79.7912 116.908 79.9585C116.908 80.0895 116.888 80.2098 116.849 80.3193C116.81 80.4288 116.755 80.5262 116.683 80.6116C116.612 80.6969 116.525 80.7698 116.424 80.8301C116.323 80.8905 116.21 80.9371 116.084 80.9698V80.9802C116.151 81.0181 116.21 81.0599 116.26 81.1056C116.31 81.1513 116.357 81.1983 116.402 81.2466C116.447 81.2949 116.492 81.3496 116.536 81.4108C116.58 81.472 116.629 81.5432 116.682 81.6242L117.343 82.6666ZM115.086 79.4567V80.662H115.599C115.694 80.662 115.782 80.6474 115.862 80.618C115.942 80.5887 116.012 80.5465 116.071 80.4913C116.129 80.4361 116.175 80.3689 116.208 80.2895C116.241 80.2102 116.257 80.1214 116.257 80.0231C116.257 79.8455 116.201 79.7067 116.089 79.6067C115.976 79.5067 115.815 79.4567 115.604 79.4567H115.086ZM124.499 82.6666H123.823L123.489 81.7225H122.027L121.706 82.6666H121.032L122.424 78.9574H123.118L124.499 82.6666ZM123.325 81.2207L122.81 79.7412C122.794 79.6929 122.778 79.6153 122.76 79.5084H122.75C122.735 79.6067 122.717 79.6843 122.698 79.7412L122.188 81.2207H123.325ZM129.313 82.6666H128.678V78.9574H129.313V82.6666ZM137.05 82.6666H136.376L134.601 79.9404C134.556 79.8714 134.519 79.7998 134.489 79.7257H134.474C134.488 79.805 134.495 79.9748 134.495 80.2352V82.6666H133.898V78.9574H134.616L136.332 81.6191C136.405 81.7294 136.451 81.8053 136.472 81.8467H136.482C136.465 81.7484 136.456 81.582 136.456 81.3475V78.9574H137.05V82.6666ZM142.97 81.4406H141.555V80.9983H142.97V81.4406ZM150.497 82.6666H149.821L149.486 81.7225H148.025L147.703 82.6666H147.029L148.421 78.9574H149.116L150.497 82.6666ZM149.323 81.2207L148.807 79.7412C148.792 79.6929 148.775 79.6153 148.758 79.5084H148.748C148.732 79.6067 148.715 79.6843 148.696 79.7412L148.185 81.2207H149.323ZM154.678 82.6666V78.9574H155.751C157.121 78.9574 157.806 79.5601 157.806 80.7655C157.806 81.338 157.616 81.798 157.236 82.1454C156.856 82.4929 156.346 82.6666 155.707 82.6666H154.678ZM155.292 79.4799V82.1467H155.785C156.218 82.1467 156.556 82.0277 156.797 81.7898C157.038 81.5518 157.158 81.2155 157.158 80.781C157.158 79.9136 156.708 79.4799 155.808 79.4799H155.292ZM165.209 82.6666H164.532L164.198 81.7225H162.736L162.415 82.6666H161.741L163.133 78.9574H163.827L165.209 82.6666ZM164.035 81.2207L163.519 79.7412C163.503 79.6929 163.487 79.6153 163.47 79.5084H163.459C163.444 79.6067 163.427 79.6843 163.408 79.7412L162.897 81.2207H164.035ZM170.004 81.3216V82.6666H169.39V78.9574H170.517C170.944 78.9574 171.275 79.0566 171.51 79.2549C171.745 79.4532 171.862 79.7326 171.862 80.093C171.862 80.4534 171.74 80.7482 171.494 80.9776C171.249 81.2069 170.917 81.3216 170.499 81.3216H170.004ZM170.004 79.4644V80.8198H170.403C170.668 80.8198 170.869 80.7586 171.007 80.6361C171.145 80.5137 171.214 80.3413 171.214 80.1188C171.214 79.6826 170.96 79.4644 170.452 79.4644H170.004ZM178.547 79.4799H177.479V82.6666H176.862V79.4799H175.797V78.9574H178.547V79.4799ZM183.394 82.6666H182.759V78.9574H183.394V82.6666ZM190.893 78.9574L189.558 82.6666H188.869L187.557 78.9574H188.231L189.149 81.7717C189.178 81.8613 189.2 81.9657 189.216 82.0846H189.226C189.238 81.9863 189.263 81.8803 189.301 81.7665L190.24 78.9574H190.893ZM197.142 82.6666H195.056V78.9574H197.059V79.4799H195.673V80.5301H196.95V81.05H195.673V82.1467H197.142V82.6666ZM208.661 82.6666H206.603V78.9574H207.22V82.1467H208.661V82.6666ZM214.4 82.7287C213.864 82.7287 213.435 82.5554 213.113 82.2088C212.791 81.8622 212.63 81.4113 212.63 80.856C212.63 80.2594 212.794 79.7834 213.122 79.4282C213.45 79.073 213.896 78.8954 214.459 78.8954C214.981 78.8954 215.401 79.0678 215.72 79.4127C216.039 79.7576 216.198 80.2085 216.198 80.7655C216.198 81.3707 216.035 81.8493 215.708 82.201C215.382 82.5528 214.946 82.7287 214.4 82.7287ZM214.428 79.436C214.088 79.436 213.811 79.5627 213.598 79.8162C213.384 80.0697 213.278 80.4034 213.278 80.8172C213.278 81.2293 213.381 81.5613 213.589 81.813C213.796 82.0648 214.067 82.1907 214.402 82.1907C214.758 82.1907 215.039 82.0708 215.245 81.8312C215.45 81.5915 215.553 81.2561 215.553 80.825C215.553 80.3818 215.453 80.0395 215.254 79.7981C215.054 79.5567 214.779 79.436 214.428 79.436ZM223.142 82.5114C222.862 82.6563 222.514 82.7287 222.098 82.7287C221.559 82.7287 221.127 82.5588 220.802 82.2191C220.477 81.8794 220.315 81.4337 220.315 80.8819C220.315 80.2887 220.497 79.8093 220.863 79.4437C221.228 79.0782 221.69 78.8954 222.248 78.8954C222.607 78.8954 222.905 78.9462 223.142 79.048V79.6584C222.892 79.5101 222.615 79.436 222.313 79.436C221.91 79.436 221.584 79.5644 221.334 79.8214C221.085 80.0783 220.96 80.4215 220.96 80.8508C220.96 81.2595 221.077 81.585 221.31 81.8273C221.543 82.0695 221.85 82.1907 222.23 82.1907C222.581 82.1907 222.885 82.1079 223.142 81.9424V82.5114ZM229.049 82.7287C228.514 82.7287 228.085 82.5554 227.763 82.2088C227.44 81.8622 227.279 81.4113 227.279 80.856C227.279 80.2594 227.443 79.7834 227.772 79.4282C228.1 79.073 228.546 78.8954 229.109 78.8954C229.631 78.8954 230.051 79.0678 230.37 79.4127C230.688 79.7576 230.848 80.2085 230.848 80.7655C230.848 81.3707 230.684 81.8493 230.358 82.201C230.031 82.5528 229.595 82.7287 229.049 82.7287ZM229.078 79.436C228.737 79.436 228.461 79.5627 228.247 79.8162C228.034 80.0697 227.927 80.4034 227.927 80.8172C227.927 81.2293 228.031 81.5613 228.238 81.813C228.445 82.0648 228.717 82.1907 229.052 82.1907C229.408 82.1907 229.688 82.0708 229.894 81.8312C230.1 81.5915 230.202 81.2561 230.202 80.825C230.202 80.3818 230.103 80.0395 229.903 79.7981C229.704 79.5567 229.428 79.436 229.078 79.436ZM239.191 82.6666H238.579V80.2663C238.579 80.0697 238.592 79.8291 238.616 79.5446H238.605C238.567 79.7067 238.534 79.8231 238.504 79.8938L237.395 82.6666H236.97L235.858 79.9145C235.827 79.8334 235.794 79.7101 235.76 79.5446H235.749C235.763 79.6929 235.77 79.9352 235.77 80.2714V82.6666H235.2V78.9574H236.068L237.045 81.4276C237.12 81.6173 237.168 81.7587 237.19 81.8518H237.203C237.267 81.657 237.319 81.5121 237.359 81.4173L238.354 78.9574H239.191V82.6666ZM245.308 82.7287C244.773 82.7287 244.344 82.5554 244.021 82.2088C243.699 81.8622 243.538 81.4113 243.538 80.856C243.538 80.2594 243.702 79.7834 244.031 79.4282C244.359 79.073 244.805 78.8954 245.368 78.8954C245.89 78.8954 246.31 79.0678 246.629 79.4127C246.947 79.7576 247.107 80.2085 247.107 80.7655C247.107 81.3707 246.943 81.8493 246.617 82.201C246.29 82.5528 245.854 82.7287 245.308 82.7287ZM245.337 79.436C244.996 79.436 244.719 79.5627 244.506 79.8162C244.293 80.0697 244.186 80.4034 244.186 80.8172C244.186 81.2293 244.29 81.5613 244.497 81.813C244.704 82.0648 244.976 82.1907 245.311 82.1907C245.667 82.1907 245.947 82.0708 246.153 81.8312C246.359 81.5915 246.461 81.2561 246.461 80.825C246.461 80.3818 246.362 80.0395 246.162 79.7981C245.963 79.5567 245.687 79.436 245.337 79.436ZM253.843 79.4799H252.775V82.6666H252.159V79.4799H251.094V78.9574H253.843V79.4799ZM258.69 82.6666H258.056V78.9574H258.69V82.6666ZM264.808 82.7287C264.272 82.7287 263.843 82.5554 263.521 82.2088C263.199 81.8622 263.038 81.4113 263.038 80.856C263.038 80.2594 263.202 79.7834 263.53 79.4282C263.858 79.073 264.304 78.8954 264.867 78.8954C265.389 78.8954 265.809 79.0678 266.128 79.4127C266.447 79.7576 266.606 80.2085 266.606 80.7655C266.606 81.3707 266.443 81.8493 266.116 82.201C265.79 82.5528 265.354 82.7287 264.808 82.7287ZM264.836 79.436C264.496 79.436 264.219 79.5627 264.006 79.8162C263.792 80.0697 263.685 80.4034 263.685 80.8172C263.685 81.2293 263.789 81.5613 263.996 81.813C264.204 82.0648 264.475 82.1907 264.81 82.1907C265.166 82.1907 265.447 82.0708 265.652 81.8312C265.858 81.5915 265.961 81.2561 265.961 80.825C265.961 80.3818 265.861 80.0395 265.662 79.7981C265.462 79.5567 265.187 79.436 264.836 79.436ZM274.11 82.6666H273.436L271.661 79.9404C271.616 79.8714 271.579 79.7998 271.549 79.7257H271.534C271.548 79.805 271.554 79.9748 271.554 80.2352V82.6666H270.958V78.9574H271.676L273.392 81.6191C273.464 81.7294 273.511 81.8053 273.532 81.8467H273.542C273.525 81.7484 273.516 81.582 273.516 81.3475V78.9574H274.11V82.6666ZM284.444 81.3216V82.6666H283.83V78.9574H284.957C285.384 78.9574 285.715 79.0566 285.95 79.2549C286.185 79.4532 286.303 79.7326 286.303 80.093C286.303 80.4534 286.18 80.7482 285.935 80.9776C285.689 81.2069 285.357 81.3216 284.939 81.3216H284.444ZM284.444 79.4644V80.8198H284.843C285.108 80.8198 285.309 80.7586 285.447 80.6361C285.586 80.5137 285.655 80.3413 285.655 80.1188C285.655 79.6826 285.401 79.4644 284.893 79.4644H284.444ZM292.135 82.7287C291.599 82.7287 291.17 82.5554 290.848 82.2088C290.526 81.8622 290.365 81.4113 290.365 80.856C290.365 80.2594 290.529 79.7834 290.857 79.4282C291.185 79.073 291.631 78.8954 292.194 78.8954C292.716 78.8954 293.136 79.0678 293.455 79.4127C293.774 79.7576 293.933 80.2085 293.933 80.7655C293.933 81.3707 293.77 81.8493 293.443 82.201C293.117 82.5528 292.681 82.7287 292.135 82.7287ZM292.163 79.436C291.823 79.436 291.546 79.5627 291.332 79.8162C291.119 80.0697 291.012 80.4034 291.012 80.8172C291.012 81.2293 291.116 81.5613 291.323 81.813C291.531 82.0648 291.802 82.1907 292.137 82.1907C292.493 82.1907 292.774 82.0708 292.979 81.8312C293.185 81.5915 293.288 81.2561 293.288 80.825C293.288 80.3818 293.188 80.0395 292.988 79.7981C292.789 79.5567 292.514 79.436 292.163 79.436ZM300.343 82.6666H298.285V78.9574H298.902V82.1467H300.343V82.6666ZM305.183 82.6666H304.548V78.9574H305.183V82.6666ZM312.36 82.5114C312.08 82.6563 311.732 82.7287 311.315 82.7287C310.776 82.7287 310.344 82.5588 310.019 82.2191C309.695 81.8794 309.532 81.4337 309.532 80.8819C309.532 80.2887 309.715 79.8093 310.08 79.4437C310.446 79.0782 310.908 78.8954 311.466 78.8954C311.825 78.8954 312.123 78.9462 312.36 79.048V79.6584C312.109 79.5101 311.833 79.436 311.53 79.436C311.128 79.436 310.802 79.5644 310.552 79.8214C310.302 80.0783 310.178 80.4215 310.178 80.8508C310.178 81.2595 310.294 81.585 310.527 81.8273C310.761 82.0695 311.067 82.1907 311.447 82.1907C311.798 82.1907 312.102 82.1079 312.36 81.9424V82.5114ZM319.324 78.9574L318.106 81.319V82.6666H317.489V81.3319L316.302 78.9574H317.005L317.736 80.5482C317.744 80.5672 317.77 80.6387 317.813 80.7629H317.821C317.837 80.7077 317.865 80.6361 317.907 80.5482L318.671 78.9574H319.324Z" fill="#ADB5C1"/>
</g>
</g>
</g>
</g>
</g>
<path id="Find the next" d="M36.7812 175V143H57.9687V148.578H43.5469V156.203H56.5625V161.781H43.5469V175H36.7812ZM62.3945 175V151H69.0508V175H62.3945ZM65.7383 147.906C64.7487 147.906 63.8997 147.578 63.1914 146.922C62.4935 146.255 62.1445 145.458 62.1445 144.531C62.1445 143.615 62.4935 142.828 63.1914 142.172C63.8997 141.505 64.7487 141.172 65.7383 141.172C66.7279 141.172 67.5716 141.505 68.2695 142.172C68.9779 142.828 69.332 143.615 69.332 144.531C69.332 145.458 68.9779 146.255 68.2695 146.922C67.5716 147.578 66.7279 147.906 65.7383 147.906ZM81.0391 161.125V175H74.3828V151H80.7266V155.234H81.0078C81.5391 153.839 82.4297 152.734 83.6797 151.922C84.9297 151.099 86.4453 150.688 88.2266 150.688C89.8932 150.688 91.3464 151.052 92.5859 151.781C93.8255 152.51 94.7891 153.552 95.4766 154.906C96.1641 156.25 96.5078 157.854 96.5078 159.719V175H89.8516V160.906C89.862 159.437 89.487 158.292 88.7266 157.469C87.9661 156.635 86.9193 156.219 85.5859 156.219C84.6901 156.219 83.8984 156.411 83.2109 156.797C82.5339 157.182 82.0026 157.745 81.6172 158.484C81.2422 159.214 81.0495 160.094 81.0391 161.125ZM110.598 175.391C108.775 175.391 107.124 174.922 105.645 173.984C104.176 173.036 103.009 171.646 102.145 169.812C101.29 167.969 100.863 165.708 100.863 163.031C100.863 160.281 101.306 157.995 102.191 156.172C103.077 154.339 104.254 152.969 105.723 152.063C107.202 151.146 108.822 150.688 110.582 150.688C111.926 150.688 113.046 150.917 113.941 151.375C114.848 151.823 115.577 152.385 116.129 153.062C116.691 153.729 117.118 154.385 117.41 155.031H117.613V143H124.254V175H117.691V171.156H117.41C117.098 171.823 116.655 172.484 116.082 173.141C115.52 173.786 114.785 174.323 113.879 174.75C112.983 175.177 111.889 175.391 110.598 175.391ZM112.707 170.094C113.78 170.094 114.686 169.802 115.426 169.219C116.176 168.625 116.749 167.797 117.145 166.734C117.551 165.672 117.754 164.427 117.754 163C117.754 161.573 117.556 160.333 117.16 159.281C116.764 158.229 116.191 157.417 115.441 156.844C114.691 156.271 113.78 155.984 112.707 155.984C111.613 155.984 110.691 156.281 109.941 156.875C109.191 157.469 108.624 158.292 108.238 159.344C107.853 160.396 107.66 161.615 107.66 163C107.66 164.396 107.853 165.63 108.238 166.703C108.634 167.766 109.202 168.599 109.941 169.203C110.691 169.797 111.613 170.094 112.707 170.094ZM152.676 151V156H138.223V151H152.676ZM141.504 145.25H148.16V167.625C148.16 168.24 148.254 168.719 148.441 169.062C148.629 169.396 148.889 169.63 149.223 169.766C149.566 169.901 149.962 169.969 150.41 169.969C150.723 169.969 151.035 169.943 151.348 169.891C151.66 169.828 151.9 169.781 152.066 169.75L153.113 174.703C152.78 174.807 152.311 174.927 151.707 175.063C151.103 175.208 150.368 175.297 149.504 175.328C147.9 175.391 146.493 175.177 145.285 174.687C144.087 174.198 143.155 173.437 142.488 172.406C141.822 171.375 141.493 170.073 141.504 168.5V145.25ZM164.184 161.125V175H157.527V143H163.996V155.234H164.277C164.819 153.818 165.694 152.708 166.902 151.906C168.111 151.094 169.626 150.688 171.449 150.688C173.116 150.688 174.569 151.052 175.809 151.781C177.059 152.5 178.027 153.536 178.715 154.891C179.413 156.234 179.757 157.844 179.746 159.719V175H173.09V160.906C173.1 159.427 172.725 158.276 171.965 157.453C171.215 156.63 170.163 156.219 168.809 156.219C167.902 156.219 167.1 156.411 166.402 156.797C165.715 157.182 165.173 157.745 164.777 158.484C164.392 159.214 164.194 160.094 164.184 161.125ZM195.922 175.469C193.453 175.469 191.328 174.969 189.547 173.969C187.776 172.958 186.411 171.531 185.453 169.687C184.495 167.833 184.016 165.641 184.016 163.109C184.016 160.641 184.495 158.474 185.453 156.609C186.411 154.745 187.76 153.292 189.5 152.25C191.25 151.208 193.302 150.688 195.656 150.688C197.24 150.688 198.714 150.943 200.078 151.453C201.453 151.953 202.651 152.708 203.672 153.719C204.703 154.729 205.505 156 206.078 157.531C206.651 159.052 206.938 160.833 206.938 162.875V164.703H186.672V160.578H200.672C200.672 159.62 200.464 158.771 200.047 158.031C199.63 157.292 199.052 156.714 198.312 156.297C197.583 155.87 196.734 155.656 195.766 155.656C194.755 155.656 193.859 155.891 193.078 156.359C192.307 156.818 191.703 157.437 191.266 158.219C190.828 158.99 190.604 159.849 190.594 160.797V164.719C190.594 165.906 190.813 166.932 191.25 167.797C191.698 168.661 192.328 169.328 193.141 169.797C193.953 170.266 194.917 170.5 196.031 170.5C196.771 170.5 197.448 170.396 198.063 170.188C198.677 169.979 199.203 169.667 199.641 169.25C200.078 168.833 200.411 168.323 200.641 167.719L206.797 168.125C206.484 169.604 205.844 170.896 204.875 172C203.917 173.094 202.677 173.948 201.156 174.563C199.646 175.167 197.901 175.469 195.922 175.469ZM228.121 161.125V175H221.465V151H227.809V155.234H228.09C228.621 153.839 229.512 152.734 230.762 151.922C232.012 151.099 233.527 150.688 235.309 150.688C236.975 150.688 238.428 151.052 239.668 151.781C240.908 152.51 241.871 153.552 242.559 154.906C243.246 156.25 243.59 157.854 243.59 159.719V175H236.934V160.906C236.944 159.437 236.569 158.292 235.809 157.469C235.048 156.635 234.001 156.219 232.668 156.219C231.772 156.219 230.98 156.411 230.293 156.797C229.616 157.182 229.085 157.745 228.699 158.484C228.324 159.214 228.132 160.094 228.121 161.125ZM259.773 175.469C257.305 175.469 255.18 174.969 253.398 173.969C251.628 172.958 250.263 171.531 249.305 169.687C248.346 167.833 247.867 165.641 247.867 163.109C247.867 160.641 248.346 158.474 249.305 156.609C250.263 154.745 251.612 153.292 253.352 152.25C255.102 151.208 257.154 150.688 259.508 150.688C261.091 150.688 262.565 150.943 263.93 151.453C265.305 151.953 266.503 152.708 267.523 153.719C268.555 154.729 269.357 156 269.93 157.531C270.503 159.052 270.789 160.833 270.789 162.875V164.703H250.523V160.578H264.523C264.523 159.62 264.315 158.771 263.898 158.031C263.482 157.292 262.904 156.714 262.164 156.297C261.435 155.87 260.586 155.656 259.617 155.656C258.607 155.656 257.711 155.891 256.93 156.359C256.159 156.818 255.555 157.437 255.117 158.219C254.68 158.99 254.456 159.849 254.445 160.797V164.719C254.445 165.906 254.664 166.932 255.102 167.797C255.549 168.661 256.18 169.328 256.992 169.797C257.805 170.266 258.768 170.5 259.883 170.5C260.622 170.5 261.299 170.396 261.914 170.188C262.529 169.979 263.055 169.667 263.492 169.25C263.93 168.833 264.263 168.323 264.492 167.719L270.648 168.125C270.336 169.604 269.695 170.896 268.727 172C267.768 173.094 266.529 173.948 265.008 174.563C263.497 175.167 261.753 175.469 259.773 175.469ZM280.266 151L284.672 159.391L289.187 151H296.016L289.062 163L296.203 175H289.406L284.672 166.703L280.016 175H273.141L280.266 163L273.391 151H280.266ZM312.734 151V156H298.281V151H312.734ZM301.563 145.25H308.219V167.625C308.219 168.24 308.313 168.719 308.5 169.062C308.688 169.396 308.948 169.63 309.281 169.766C309.625 169.901 310.021 169.969 310.469 169.969C310.781 169.969 311.094 169.943 311.406 169.891C311.719 169.828 311.958 169.781 312.125 169.75L313.172 174.703C312.839 174.807 312.37 174.927 311.766 175.063C311.161 175.208 310.427 175.297 309.563 175.328C307.958 175.391 306.552 175.177 305.344 174.687C304.146 174.198 303.214 173.437 302.547 172.406C301.88 171.375 301.552 170.073 301.563 168.5V145.25Z" fill="#E9E7E1"/>
<path id="foothold." d="M49.5625 203V208H34.75V203H49.5625ZM38.1406 227V201.266C38.1406 199.526 38.4792 198.083 39.1562 196.937C39.8438 195.792 40.7812 194.932 41.9687 194.359C43.1563 193.786 44.5052 193.5 46.0156 193.5C47.0365 193.5 47.9688 193.578 48.8125 193.734C49.6667 193.891 50.3021 194.031 50.7188 194.156L49.5313 199.156C49.2708 199.073 48.9479 198.995 48.5625 198.922C48.1875 198.849 47.8021 198.812 47.4062 198.812C46.4271 198.812 45.7448 199.042 45.3594 199.5C44.974 199.948 44.7813 200.578 44.7813 201.391V227H38.1406ZM63.6133 227.469C61.1862 227.469 59.0872 226.953 57.3164 225.922C55.556 224.88 54.1966 223.432 53.2383 221.578C52.2799 219.714 51.8008 217.552 51.8008 215.094C51.8008 212.615 52.2799 210.448 53.2383 208.594C54.1966 206.729 55.556 205.281 57.3164 204.25C59.0872 203.208 61.1862 202.688 63.6133 202.688C66.0404 202.688 68.1341 203.208 69.8945 204.25C71.6654 205.281 73.0299 206.729 73.9883 208.594C74.9466 210.448 75.4258 212.615 75.4258 215.094C75.4258 217.552 74.9466 219.714 73.9883 221.578C73.0299 223.432 71.6654 224.88 69.8945 225.922C68.1341 226.953 66.0404 227.469 63.6133 227.469ZM63.6445 222.312C64.7487 222.312 65.6706 222 66.4102 221.375C67.1497 220.74 67.707 219.875 68.082 218.781C68.4674 217.687 68.6602 216.443 68.6602 215.047C68.6602 213.651 68.4674 212.406 68.082 211.312C67.707 210.219 67.1497 209.354 66.4102 208.719C65.6706 208.083 64.7487 207.766 63.6445 207.766C62.5299 207.766 61.5924 208.083 60.832 208.719C60.082 209.354 59.5143 210.219 59.1289 211.312C58.7539 212.406 58.5664 213.651 58.5664 215.047C58.5664 216.443 58.7539 217.687 59.1289 218.781C59.5143 219.875 60.082 220.74 60.832 221.375C61.5924 222 62.5299 222.312 63.6445 222.312ZM90.5977 227.469C88.1706 227.469 86.0716 226.953 84.3008 225.922C82.5404 224.88 81.181 223.432 80.2227 221.578C79.2643 219.714 78.7852 217.552 78.7852 215.094C78.7852 212.615 79.2643 210.448 80.2227 208.594C81.181 206.729 82.5404 205.281 84.3008 204.25C86.0716 203.208 88.1706 202.688 90.5977 202.688C93.0247 202.688 95.1185 203.208 96.8789 204.25C98.6497 205.281 100.014 206.729 100.973 208.594C101.931 210.448 102.41 212.615 102.41 215.094C102.41 217.552 101.931 219.714 100.973 221.578C100.014 223.432 98.6497 224.88 96.8789 225.922C95.1185 226.953 93.0247 227.469 90.5977 227.469ZM90.6289 222.312C91.7331 222.312 92.6549 222 93.3945 221.375C94.1341 220.74 94.6914 219.875 95.0664 218.781C95.4518 217.687 95.6445 216.443 95.6445 215.047C95.6445 213.651 95.4518 212.406 95.0664 211.312C94.6914 210.219 94.1341 209.354 93.3945 208.719C92.6549 208.083 91.7331 207.766 90.6289 207.766C89.5143 207.766 88.5768 208.083 87.8164 208.719C87.0664 209.354 86.4987 210.219 86.1133 211.312C85.7383 212.406 85.5508 213.651 85.5508 215.047C85.5508 216.443 85.7383 217.687 86.1133 218.781C86.4987 219.875 87.0664 220.74 87.8164 221.375C88.5768 222 89.5143 222.312 90.6289 222.312ZM119.504 203V208H105.051V203H119.504ZM108.332 197.25H114.988V219.625C114.988 220.24 115.082 220.719 115.27 221.062C115.457 221.396 115.717 221.63 116.051 221.766C116.395 221.901 116.79 221.969 117.238 221.969C117.551 221.969 117.863 221.943 118.176 221.891C118.488 221.828 118.728 221.781 118.895 221.75L119.941 226.703C119.608 226.807 119.139 226.927 118.535 227.063C117.931 227.208 117.197 227.297 116.332 227.328C114.728 227.391 113.322 227.177 112.113 226.687C110.915 226.198 109.983 225.437 109.316 224.406C108.65 223.375 108.322 222.073 108.332 220.5V197.25ZM131.012 213.125V227H124.355V195H130.824V207.234H131.105C131.647 205.818 132.522 204.708 133.73 203.906C134.939 203.094 136.454 202.688 138.277 202.688C139.944 202.688 141.397 203.052 142.637 203.781C143.887 204.5 144.855 205.536 145.543 206.891C146.241 208.234 146.585 209.844 146.574 211.719V227H139.918V212.906C139.928 211.427 139.553 210.276 138.793 209.453C138.043 208.63 136.991 208.219 135.637 208.219C134.73 208.219 133.928 208.411 133.23 208.797C132.543 209.182 132.001 209.745 131.605 210.484C131.22 211.214 131.022 212.094 131.012 213.125ZM162.656 227.469C160.229 227.469 158.13 226.953 156.359 225.922C154.599 224.88 153.24 223.432 152.281 221.578C151.323 219.714 150.844 217.552 150.844 215.094C150.844 212.615 151.323 210.448 152.281 208.594C153.24 206.729 154.599 205.281 156.359 204.25C158.13 203.208 160.229 202.688 162.656 202.688C165.083 202.688 167.177 203.208 168.938 204.25C170.708 205.281 172.073 206.729 173.031 208.594C173.99 210.448 174.469 212.615 174.469 215.094C174.469 217.552 173.99 219.714 173.031 221.578C172.073 223.432 170.708 224.88 168.938 225.922C167.177 226.953 165.083 227.469 162.656 227.469ZM162.687 222.312C163.792 222.312 164.714 222 165.453 221.375C166.193 220.74 166.75 219.875 167.125 218.781C167.51 217.687 167.703 216.443 167.703 215.047C167.703 213.651 167.51 212.406 167.125 211.312C166.75 210.219 166.193 209.354 165.453 208.719C164.714 208.083 163.792 207.766 162.687 207.766C161.573 207.766 160.635 208.083 159.875 208.719C159.125 209.354 158.557 210.219 158.172 211.312C157.797 212.406 157.609 213.651 157.609 215.047C157.609 216.443 157.797 217.687 158.172 218.781C158.557 219.875 159.125 220.74 159.875 221.375C160.635 222 161.573 222.312 162.687 222.312ZM185.453 195V227H178.797V195H185.453ZM199.629 227.391C197.806 227.391 196.155 226.922 194.676 225.984C193.207 225.036 192.04 223.646 191.176 221.812C190.322 219.969 189.895 217.708 189.895 215.031C189.895 212.281 190.337 209.995 191.223 208.172C192.108 206.339 193.285 204.969 194.754 204.063C196.233 203.146 197.853 202.688 199.613 202.688C200.957 202.688 202.077 202.917 202.973 203.375C203.879 203.823 204.608 204.385 205.16 205.062C205.723 205.729 206.15 206.385 206.441 207.031H206.645V195H213.285V227H206.723V223.156H206.441C206.129 223.823 205.686 224.484 205.113 225.141C204.551 225.786 203.816 226.323 202.91 226.75C202.014 227.177 200.921 227.391 199.629 227.391ZM201.738 222.094C202.811 222.094 203.717 221.802 204.457 221.219C205.207 220.625 205.78 219.797 206.176 218.734C206.582 217.672 206.785 216.427 206.785 215C206.785 213.573 206.587 212.333 206.191 211.281C205.796 210.229 205.223 209.417 204.473 208.844C203.723 208.271 202.811 207.984 201.738 207.984C200.645 207.984 199.723 208.281 198.973 208.875C198.223 209.469 197.655 210.292 197.27 211.344C196.884 212.396 196.691 213.615 196.691 215C196.691 216.396 196.884 217.63 197.27 218.703C197.665 219.766 198.233 220.599 198.973 221.203C199.723 221.797 200.645 222.094 201.738 222.094ZM222.648 227.406C221.617 227.406 220.732 227.042 219.992 226.312C219.263 225.573 218.898 224.687 218.898 223.656C218.898 222.635 219.263 221.76 219.992 221.031C220.732 220.302 221.617 219.937 222.648 219.937C223.648 219.937 224.523 220.302 225.273 221.031C226.023 221.76 226.398 222.635 226.398 223.656C226.398 224.344 226.221 224.974 225.867 225.547C225.523 226.109 225.07 226.562 224.508 226.906C223.945 227.24 223.326 227.406 222.648 227.406Z" fill="#E9E7E1"/>
<rect id="Rectangle" x="34" y="276" width="512" height="2" fill="#2B323D"/>
<rect id="Rectangle_2" opacity="0.18" x="420" y="94" width="190" height="18" fill="#3EC7B4"/>
<rect id="Rectangle_3" opacity="0.32" x="452" y="122" width="190" height="18" fill="#3EC7B4"/>
<rect id="Rectangle_4" opacity="0.52" x="484" y="150" width="190" height="18" fill="#3EC7B4"/>
<path id="OPENING / 16:9" d="M41.2159 298.364C41.2159 299.147 41.0691 299.818 40.7756 300.377C40.4844 300.933 40.0866 301.36 39.5824 301.656C39.0805 301.951 38.5111 302.099 37.8743 302.099C37.2375 302.099 36.6669 301.951 36.1626 301.656C35.6607 301.357 35.263 300.93 34.9695 300.374C34.6783 299.815 34.5327 299.145 34.5327 298.364C34.5327 297.58 34.6783 296.91 34.9695 296.354C35.263 295.795 35.6607 295.368 36.1626 295.072C36.6669 294.776 37.2375 294.628 37.8743 294.628C38.5111 294.628 39.0805 294.776 39.5824 295.072C40.0866 295.368 40.4844 295.795 40.7756 296.354C41.0691 296.91 41.2159 297.58 41.2159 298.364ZM39.8913 298.364C39.8913 297.812 39.8049 297.347 39.6321 296.968C39.4616 296.587 39.2249 296.299 38.9219 296.105C38.6188 295.909 38.2696 295.81 37.8743 295.81C37.4789 295.81 37.1297 295.909 36.8267 296.105C36.5237 296.299 36.2857 296.587 36.1129 296.968C35.9425 297.347 35.8572 297.812 35.8572 298.364C35.8572 298.915 35.9425 299.382 36.1129 299.763C36.2857 300.142 36.5237 300.429 36.8267 300.626C37.1297 300.82 37.4789 300.917 37.8743 300.917C38.2696 300.917 38.6188 300.82 38.9219 300.626C39.2249 300.429 39.4616 300.142 39.6321 299.763C39.8049 299.382 39.8913 298.915 39.8913 298.364ZM42.4615 302V294.727H45.1887C45.7475 294.727 46.2162 294.831 46.595 295.04C46.9761 295.248 47.2638 295.535 47.4579 295.899C47.6544 296.261 47.7527 296.673 47.7527 297.135C47.7527 297.601 47.6544 298.016 47.4579 298.378C47.2614 298.74 46.9714 299.025 46.5879 299.234C46.2044 299.44 45.7321 299.543 45.171 299.543H43.3635V298.46H44.9934C45.3201 298.46 45.5877 298.403 45.796 298.289C46.0043 298.175 46.1582 298.019 46.2576 297.82C46.3594 297.621 46.4103 297.393 46.4103 297.135C46.4103 296.877 46.3594 296.65 46.2576 296.453C46.1582 296.257 46.0031 296.104 45.7924 295.995C45.5841 295.884 45.3154 295.828 44.9863 295.828H43.7789V302H42.4615ZM48.897 302V294.727H53.6271V295.832H50.2145V297.806H53.3821V298.911H50.2145V300.896H53.6555V302H48.897ZM60.9478 294.727V302H59.7759L56.3491 297.046H56.2887V302H54.9712V294.727H56.1502L59.5735 299.685H59.6374V294.727H60.9478ZM63.7008 294.727V302H62.3833V294.727H63.7008ZM71.104 294.727V302H69.9322L66.5053 297.046H66.445V302H65.1275V294.727H66.3065L69.7298 299.685H69.7937V294.727H71.104ZM77.4118 297.05C77.3526 296.858 77.2709 296.686 77.1667 296.535C77.0649 296.381 76.9418 296.25 76.7974 296.141C76.6554 296.032 76.492 295.95 76.3074 295.896C76.1227 295.839 75.9215 295.81 75.7037 295.81C75.313 295.81 74.965 295.909 74.6596 296.105C74.3542 296.302 74.1139 296.59 73.9387 296.972C73.7659 297.35 73.6795 297.812 73.6795 298.357C73.6795 298.906 73.7659 299.371 73.9387 299.752C74.1116 300.133 74.3519 300.423 74.6596 300.622C74.9674 300.819 75.3249 300.917 75.7321 300.917C76.1014 300.917 76.421 300.846 76.6909 300.704C76.9631 300.562 77.1726 300.361 77.3194 300.1C77.4662 299.837 77.5396 299.53 77.5396 299.177L77.8379 299.223H75.8635V298.193H78.8145V299.067C78.8145 299.689 78.6819 300.228 78.4167 300.683C78.1516 301.137 77.787 301.487 77.323 301.734C76.859 301.978 76.3263 302.099 75.725 302.099C75.055 302.099 74.4667 301.949 73.96 301.648C73.4558 301.345 73.0616 300.916 72.7775 300.359C72.4958 299.801 72.3549 299.138 72.3549 298.371C72.3549 297.784 72.4378 297.259 72.6035 296.798C72.7716 296.336 73.006 295.944 73.3066 295.622C73.6073 295.298 73.96 295.052 74.3649 294.884C74.7697 294.713 75.21 294.628 75.6859 294.628C76.0884 294.628 76.4636 294.687 76.8116 294.805C77.1596 294.921 77.4686 295.087 77.7385 295.303C78.0107 295.518 78.2344 295.774 78.4096 296.07C78.5848 296.366 78.6996 296.692 78.7541 297.05H77.4118ZM85.4808 294.386L83.1371 303.094H82.0114L84.3551 294.386H85.4808ZM91.7255 294.727V302H90.408V296.009H90.3654L88.6644 297.096V295.888L90.4719 294.727H91.7255ZM96.2354 302.099C95.8874 302.097 95.5477 302.037 95.2163 301.918C94.8848 301.798 94.5865 301.602 94.3214 301.332C94.0562 301.06 93.8455 300.699 93.6893 300.249C93.533 299.797 93.4561 299.237 93.4585 298.57C93.4585 297.947 93.5247 297.392 93.6573 296.904C93.7899 296.416 93.9805 296.004 94.229 295.668C94.4776 295.33 94.7771 295.072 95.1275 294.894C95.4802 294.717 95.8744 294.628 96.31 294.628C96.7669 294.628 97.1718 294.718 97.5245 294.898C97.8796 295.078 98.1661 295.324 98.3839 295.636C98.6017 295.946 98.7366 296.297 98.7887 296.688H97.4925C97.4263 296.408 97.2901 296.186 97.0842 296.02C96.8806 295.852 96.6225 295.768 96.31 295.768C95.8058 295.768 95.4175 295.987 95.1452 296.425C94.8754 296.863 94.7392 297.464 94.7369 298.229H94.7866C94.9026 298.02 95.0529 297.842 95.2376 297.692C95.4222 297.543 95.6306 297.429 95.8626 297.348C96.0969 297.265 96.3443 297.224 96.6048 297.224C97.0309 297.224 97.4132 297.326 97.7518 297.529C98.0927 297.733 98.3626 298.013 98.5614 298.371C98.7603 298.726 98.8585 299.133 98.8562 299.592C98.8585 300.071 98.7496 300.5 98.5295 300.881C98.3093 301.26 98.0027 301.558 97.6097 301.776C97.2167 301.994 96.7586 302.102 96.2354 302.099ZM96.2283 301.034C96.4864 301.034 96.7172 300.971 96.9208 300.846C97.1244 300.72 97.2854 300.551 97.4038 300.338C97.5221 300.125 97.5801 299.886 97.5778 299.621C97.5801 299.36 97.5233 299.125 97.4073 298.914C97.2937 298.703 97.1362 298.536 96.935 298.413C96.7338 298.29 96.5041 298.229 96.2461 298.229C96.0543 298.229 95.8756 298.265 95.7099 298.339C95.5442 298.412 95.3997 298.514 95.2766 298.644C95.1535 298.772 95.0565 298.921 94.9854 299.092C94.9168 299.26 94.8813 299.44 94.8789 299.631C94.8813 299.885 94.9405 300.118 95.0565 300.331C95.1725 300.544 95.3323 300.714 95.5359 300.842C95.7395 300.97 95.9703 301.034 96.2283 301.034ZM100.863 301.126C100.647 301.126 100.462 301.051 100.309 300.899C100.155 300.745 100.079 300.561 100.081 300.345C100.079 300.132 100.155 299.95 100.309 299.798C100.462 299.647 100.647 299.571 100.863 299.571C101.071 299.571 101.252 299.647 101.406 299.798C101.562 299.95 101.641 300.132 101.644 300.345C101.641 300.49 101.604 300.621 101.53 300.739C101.459 300.858 101.364 300.952 101.246 301.023C101.13 301.092 101.002 301.126 100.863 301.126ZM100.863 297.522C100.647 297.522 100.462 297.446 100.309 297.295C100.155 297.141 100.079 296.956 100.081 296.741C100.079 296.528 100.155 296.345 100.309 296.194C100.462 296.04 100.647 295.963 100.863 295.963C101.071 295.963 101.252 296.04 101.406 296.194C101.562 296.345 101.641 296.528 101.644 296.741C101.641 296.883 101.604 297.013 101.53 297.131C101.459 297.25 101.364 297.344 101.246 297.415C101.13 297.487 101.002 297.522 100.863 297.522ZM105.482 294.628C105.83 294.63 106.168 294.692 106.497 294.812C106.829 294.931 107.127 295.125 107.392 295.395C107.657 295.662 107.868 296.021 108.024 296.471C108.181 296.921 108.259 297.477 108.259 298.14C108.261 298.765 108.195 299.324 108.06 299.816C107.927 300.306 107.737 300.72 107.488 301.059C107.24 301.397 106.94 301.656 106.59 301.833C106.239 302.011 105.845 302.099 105.407 302.099C104.948 302.099 104.541 302.009 104.186 301.83C103.833 301.65 103.548 301.403 103.33 301.091C103.112 300.778 102.978 300.421 102.928 300.018H104.225C104.291 300.307 104.426 300.537 104.629 300.707C104.835 300.875 105.095 300.96 105.407 300.96C105.911 300.96 106.3 300.741 106.572 300.303C106.844 299.865 106.98 299.256 106.98 298.477H106.931C106.815 298.686 106.664 298.866 106.48 299.017C106.295 299.166 106.085 299.281 105.851 299.362C105.619 299.442 105.373 299.482 105.112 299.482C104.686 299.482 104.303 299.38 103.962 299.177C103.623 298.973 103.355 298.694 103.156 298.339C102.959 297.984 102.86 297.578 102.857 297.121C102.857 296.647 102.966 296.222 103.184 295.846C103.404 295.467 103.711 295.169 104.104 294.951C104.497 294.731 104.956 294.623 105.482 294.628ZM105.485 295.693C105.23 295.693 104.999 295.756 104.793 295.881C104.589 296.004 104.428 296.173 104.31 296.386C104.194 296.596 104.136 296.832 104.136 297.092C104.138 297.35 104.196 297.585 104.31 297.795C104.426 298.006 104.583 298.173 104.782 298.296C104.983 298.419 105.213 298.481 105.471 298.481C105.663 298.481 105.842 298.444 106.007 298.371C106.173 298.297 106.317 298.196 106.441 298.065C106.566 297.933 106.663 297.782 106.732 297.614C106.803 297.446 106.837 297.269 106.835 297.082C106.835 296.833 106.776 296.603 106.657 296.393C106.541 296.182 106.381 296.013 106.178 295.885C105.977 295.757 105.746 295.693 105.485 295.693Z" fill="#ADB5C1"/>
</g>
</g>
<defs>
<clipPath id="clip0_28_4294">
<rect width="580" height="326" rx="8" fill="white"/>
</clipPath>
</defs>
</svg>
